<?xml version="1.0" standalone="no"?>
<!DOCTYPE svg PUBLIC "-//W3C//DTD SVG 20010904//EN"
 "http://www.w3.org/TR/2001/REC-SVG-20010904/DTD/svg10.dtd">
<svg version="1.0" xmlns="http://www.w3.org/2000/svg"
 width="865.000000pt" height="575.000000pt" viewBox="0 0 865.000000 575.000000"
 preserveAspectRatio="xMidYMid meet">
<metadata>
Created by potrace 1.16, written by Peter Selinger 2001-2019
</metadata>
<g transform="translate(0.000000,575.000000) scale(0.100000,-0.100000)"
fill="#000000" stroke="none">
<path d="M0 2875 l0 -2875 4325 0 4325 0 0 2875 0 2875 -4325 0 -4325 0 0
-2875z m4591 2735 c24 -14 27 -91 3 -114 -18 -19 -16 -19 -48 -6 -26 9 -26 9
-10 -14 17 -26 41 -40 63 -37 23 4 50 44 51 73 0 64 37 88 135 88 70 0 229
-31 310 -60 28 -10 91 -31 140 -46 91 -27 197 -74 226 -100 8 -8 25 -14 37
-14 18 0 22 6 22 34 0 26 5 36 21 41 86 28 479 -131 479 -193 0 -7 5 -12 10
-12 6 0 10 -9 10 -21 0 -24 3 -24 -178 7 -56 9 -105 15 -108 12 -3 -3 -4 -39
-2 -80 l3 -75 50 14 c54 16 115 27 212 40 51 7 71 6 108 -9 194 -76 343 -278
358 -483 2 -33 2 -48 0 -32 -2 15 -10 27 -18 27 -7 0 -24 14 -37 30 -87 114
-129 157 -217 224 -107 80 -141 102 -141 89 0 -4 23 -24 52 -43 59 -40 116
-112 150 -190 19 -42 39 -66 82 -99 133 -103 125 -146 -15 -75 -103 51 -119
57 -119 39 0 -8 8 -15 18 -15 23 0 152 -62 207 -100 25 -18 45 -26 45 -19 0 7
11 3 24 -10 l23 -22 -4 24 c-3 14 2 38 11 55 18 35 17 51 -7 102 -30 64 -78
193 -73 197 2 3 15 -1 28 -7 21 -12 21 -11 -4 17 -19 20 -28 40 -28 62 0 31 2
33 27 26 15 -3 71 -42 125 -86 53 -43 100 -79 105 -79 4 0 20 -12 36 -25 20
-18 27 -33 27 -60 0 -35 0 -35 44 -35 39 0 48 -4 76 -37 30 -38 60 -116 60
-160 0 -20 5 -23 40 -23 36 0 46 -6 88 -51 97 -104 148 -214 177 -383 13 -74
21 -251 9 -191 -3 11 -10 46 -16 78 -6 33 -17 61 -25 64 -8 3 -33 44 -55 90
-41 84 -123 188 -156 197 -68 18 -109 16 -145 -8 -34 -23 -42 -24 -126 -19
-87 6 -92 5 -133 -22 -24 -15 -52 -39 -64 -53 -28 -34 -97 -38 -102 -5 -4 27
31 98 68 138 15 17 34 43 41 59 17 36 39 46 39 17 0 -18 6 -21 43 -21 23 0 53
-2 67 -5 14 -3 0 3 -30 13 -34 12 -70 33 -94 57 -32 31 -38 34 -33 16 7 -29
-19 -39 -97 -35 -41 1 -64 7 -71 18 -13 17 -112 66 -134 66 -8 0 -33 -15 -55
-34 -23 -19 -59 -41 -79 -49 -20 -9 -55 -31 -78 -49 -45 -36 -45 -34 -14 -148
37 -137 4 -270 -78 -311 -23 -12 -69 -42 -102 -66 -48 -36 -65 -44 -88 -39
-20 4 -34 0 -49 -14 -56 -52 -94 -69 -183 -84 -212 -34 -267 -40 -284 -30 -9
6 -28 36 -43 67 -29 59 -68 94 -68 60 0 -10 9 -33 20 -51 30 -49 60 -146 60
-195 0 -37 -4 -46 -26 -58 -45 -24 -74 -81 -74 -145 0 -121 62 -274 132 -324
37 -27 86 -96 88 -124 1 -26 -167 26 -265 82 -5 3 -4 -1 3 -10 7 -9 38 -26 70
-39 31 -12 83 -35 115 -51 32 -16 70 -33 84 -39 21 -8 24 -7 18 10 -6 21 9 35
45 44 25 6 82 84 166 227 21 36 44 69 51 73 10 6 8 18 -13 52 -21 37 -25 52
-19 85 4 23 12 45 18 50 53 43 69 63 92 120 29 69 90 170 105 170 4 0 40 26
78 58 89 75 121 89 159 70 25 -12 28 -19 31 -71 3 -55 2 -57 -22 -57 -34 0
-103 -60 -153 -133 l-42 -62 91 -3 c51 -1 97 -1 104 2 7 3 15 18 19 35 4 21
13 31 24 31 16 0 18 8 13 69 -2 38 -1 98 2 134 6 53 11 66 29 75 21 10 21 11
2 11 -19 1 -19 2 2 16 23 16 59 113 69 185 3 27 0 72 -10 113 -21 90 -21 96
12 109 27 11 27 11 -17 19 -54 10 -65 20 -56 49 7 22 11 22 82 16 90 -8 123
-20 130 -46 3 -11 10 -20 16 -20 6 0 1 -9 -11 -20 -12 -12 -22 -30 -22 -41 0
-10 -4 -27 -10 -37 -5 -9 -13 -57 -18 -107 -11 -106 -45 -189 -92 -220 -33
-22 -34 -24 -21 -44 10 -16 52 -9 75 14 8 8 19 15 25 15 22 0 80 63 92 98 20
62 79 173 89 167 5 -3 39 1 75 10 90 21 180 19 249 -5 31 -10 54 -15 51 -10
-9 14 -62 41 -110 56 l-40 13 43 0 c29 1 42 5 42 15 0 36 98 25 182 -21 144
-78 253 -311 232 -495 -6 -56 -8 -58 -35 -58 -38 0 -36 -9 6 -40 44 -33 53
-52 58 -130 2 -36 2 -55 0 -42 -4 19 -11 22 -45 22 -25 0 -49 7 -60 17 -17 15
-23 15 -51 3 -18 -8 -66 -14 -107 -14 -74 -1 -75 -1 -78 26 -3 23 6 33 69 75
44 29 79 61 90 83 11 19 26 40 35 47 25 18 21 139 -6 200 -26 59 -88 150 -107
157 -7 3 0 -11 16 -32 45 -56 68 -111 76 -174 3 -32 5 -58 3 -58 -16 0 -88 43
-84 49 9 13 -57 94 -100 123 -52 36 -144 69 -192 70 -21 0 -59 -9 -84 -20 -38
-17 -53 -32 -86 -88 -47 -80 -158 -192 -219 -223 -48 -24 -49 -25 -28 -74 8
-20 15 -52 15 -72 0 -35 0 -35 -46 -35 l-46 0 24 -29 c21 -27 29 -30 84 -30
59 -1 62 0 67 27 4 18 16 31 36 40 32 14 147 135 229 240 39 50 48 70 49 107
3 62 17 85 45 77 39 -12 55 -26 77 -69 12 -24 25 -43 30 -43 8 0 31 -44 31
-59 0 -14 -111 -117 -161 -151 -52 -34 -129 -127 -129 -155 0 -10 8 -27 17
-37 9 -10 22 -35 29 -55 l12 -35 -70 4 c-68 4 -72 5 -109 46 -45 48 -59 52
-59 18 0 -28 -14 -45 -65 -76 -43 -26 -91 -23 -132 9 -54 43 -63 25 -63 -125
0 -124 -11 -160 -50 -169 -16 -4 -38 -18 -48 -32 -18 -25 -19 -25 -50 -9 -34
18 -65 69 -77 126 -12 64 -16 70 -41 70 -13 0 -24 -5 -24 -10 0 -6 20 -53 45
-104 46 -97 49 -113 39 -178 -6 -36 -9 -38 -44 -38 -60 0 -78 22 -104 132 -24
94 -43 144 -52 135 -3 -2 0 -16 6 -31 5 -15 10 -57 9 -94 0 -56 -2 -63 -11
-44 -6 12 -18 22 -26 22 -9 0 -26 9 -38 21 l-22 20 -34 -63 -34 -62 28 -41
c16 -22 31 -58 35 -79 l6 -39 -48 6 c-30 5 -64 19 -94 40 -55 40 -71 50 -71
43 0 -2 44 -37 98 -78 103 -77 152 -124 152 -145 0 -16 16 -17 26 -2 3 6 -6
23 -20 38 -39 41 -30 94 18 103 11 2 30 23 43 47 42 79 44 81 113 58 l60 -20
77 28 c98 34 193 96 267 171 73 75 101 124 138 242 16 52 33 91 36 85 6 -8 50
-23 173 -59 10 -3 18 3 22 15 3 12 15 21 33 23 19 2 28 8 26 18 -5 19 26 40
59 40 15 0 41 -11 56 -24 l28 -25 -30 -58 c-24 -47 -35 -59 -58 -61 -18 -2
-31 -11 -37 -26 -8 -21 -15 -23 -80 -25 -84 -2 -115 -12 -131 -43 -24 -45
-123 -174 -173 -226 -90 -94 -215 -153 -382 -181 -78 -13 -94 -29 -94 -91 0
-30 0 -30 -62 -30 -60 -1 -62 -1 -38 -15 60 -35 134 -56 155 -46 57 30 216 74
270 76 49 1 76 10 143 43 103 53 151 100 201 200 22 44 52 90 68 103 15 13 33
36 40 50 11 26 82 76 221 158 46 28 72 50 72 61 0 10 7 34 15 54 13 31 20 36
49 36 42 0 65 -25 81 -87 12 -46 12 -49 -14 -78 -15 -16 -35 -43 -45 -58 -20
-33 -87 -66 -131 -67 -29 0 -29 0 -7 -16 46 -32 45 -46 -3 -147 -25 -52 -45
-104 -45 -115 0 -12 -11 -33 -23 -48 l-24 -27 -34 21 c-19 11 -40 30 -46 41
-7 11 -22 25 -33 31 -17 9 -22 5 -44 -39 -26 -51 -88 -111 -172 -168 -28 -18
-64 -53 -81 -76 -17 -25 -46 -51 -69 -61 -21 -9 -47 -22 -58 -27 -21 -12 -27
-8 -53 41 -16 29 -26 36 -58 38 -38 3 -38 3 -23 -20 13 -20 64 -61 87 -70 5
-2 12 -18 16 -35 l7 -33 -46 0 c-61 0 -94 14 -144 63 l-44 42 21 -40 c13 -25
21 -58 21 -89 l0 -49 -42 5 c-42 5 -44 4 -61 -34 -11 -21 -40 -62 -66 -91 -26
-28 -59 -73 -74 -99 -16 -27 -32 -48 -37 -48 -6 0 -27 -16 -49 -35 -33 -31
-42 -34 -64 -26 -33 13 -48 42 -41 79 5 24 2 32 -15 41 -19 10 -22 9 -31 -14
-6 -15 -10 -30 -10 -34 0 -15 -81 -100 -100 -106 -19 -6 -19 -8 -5 -28 16 -23
20 -74 7 -95 -5 -7 -26 -16 -48 -19 -21 -3 -44 -13 -50 -22 -9 -11 -31 -14
-98 -13 -69 1 -89 -3 -99 -15 -6 -9 -33 -38 -59 -64 -46 -48 -49 -49 -107 -48
l-59 1 18 30 c10 16 16 37 13 47 -2 10 5 35 17 56 14 25 16 34 7 26 -13 -10
-16 -9 -20 6 -3 10 -5 1 -6 -20 -1 -42 -22 -58 -52 -38 -13 8 -18 8 -17 0 2
-6 -20 -18 -49 -27 -42 -14 -62 -28 -99 -72 -25 -30 -55 -59 -65 -64 -25 -12
-24 -25 4 -36 41 -16 -123 -11 -185 6 l-59 17 61 33 c33 19 67 34 76 34 24 0
74 29 74 44 0 7 7 19 15 26 25 20 9 25 -88 26 -70 0 -105 6 -147 22 -53 22
-54 22 -30 2 14 -11 37 -28 53 -37 15 -10 27 -24 27 -32 0 -8 8 -23 18 -34 17
-19 16 -19 -49 -15 -46 3 -82 12 -117 30 l-50 26 5 -34 c5 -32 4 -34 -24 -34
-16 0 -56 -13 -89 -29 -128 -63 -200 -63 -448 1 -114 29 -120 30 -133 12 -25
-34 -15 -80 36 -171 27 -49 56 -96 65 -106 9 -9 26 -52 38 -95 20 -67 23 -101
23 -264 0 -181 -1 -189 -25 -233 l-25 -45 -91 0 -91 0 -5 28 c-3 15 -4 113 -3
218 3 162 6 196 20 218 34 51 18 97 -89 273 -56 90 -44 177 41 315 35 57 40
61 76 61 34 0 16 15 -31 26 -77 19 -81 28 -18 41 45 9 56 15 56 31 0 17 5 19
48 15 220 -22 240 -16 85 24 -64 17 -89 29 -117 57 -48 48 -60 86 -36 108 24
22 48 14 125 -40 56 -39 102 -57 276 -108 57 -17 139 -77 139 -103 0 -7 -11
-21 -25 -30 -26 -17 -66 -16 -205 6 -82 12 -120 11 -60 -2 25 -6 50 -14 55
-18 6 -4 36 -11 68 -15 36 -5 61 -13 64 -22 3 -7 22 -23 42 -34 l36 -20 -70 5
c-38 3 -140 23 -225 45 -85 22 -157 38 -159 35 -13 -12 192 -74 354 -105 83
-17 109 -18 152 -9 28 6 57 18 63 26 7 7 18 14 26 14 7 0 18 18 24 41 13 49
31 57 78 35 33 -15 28 -8 -41 59 -42 42 -86 93 -97 114 -21 43 -35 51 -86 51
-68 0 -125 50 -103 91 11 21 172 51 214 39 66 -17 89 34 82 180 -3 58 -10 118
-16 134 -20 50 -10 68 53 106 32 19 67 47 78 62 22 31 58 37 78 13 7 -8 18
-15 26 -15 7 0 16 -4 19 -10 3 -5 0 -8 -7 -5 -13 5 -75 -96 -81 -132 -1 -10
-5 -22 -9 -28 -10 -17 -2 -129 10 -133 6 -2 9 -9 6 -16 -3 -8 21 -34 56 -62
34 -28 63 -60 67 -74 3 -14 11 -31 17 -39 9 -12 0 -13 -59 -9 -68 6 -69 6 -36
-8 76 -34 281 -26 281 10 0 7 24 35 53 63 31 29 51 56 49 66 -2 9 2 17 10 17
23 0 -15 20 -39 20 -22 0 -23 4 -24 93 -2 138 0 149 32 181 16 16 29 38 29 48
0 26 46 46 71 30 10 -7 32 -12 48 -12 54 0 171 -54 294 -134 15 -10 27 -16 27
-14 0 17 -256 161 -343 193 -30 12 -54 28 -64 46 -24 39 -84 80 -180 122 -46
19 -83 34 -83 31 0 -2 41 -24 91 -50 103 -51 139 -82 139 -118 0 -48 -89 -37
-231 29 -54 26 -103 44 -108 41 -5 -4 -12 -2 -15 3 -4 5 -25 7 -48 4 -57 -6
-203 15 -255 38 -25 10 -43 14 -43 8 0 -6 -12 -2 -27 8 -42 28 -116 62 -170
78 -162 47 -218 29 -392 -125 -28 -25 -47 -36 -52 -29 -7 13 -89 -25 -89 -42
0 -5 -15 -19 -33 -29 -19 -11 -39 -30 -46 -43 -7 -13 -21 -29 -32 -35 -18 -11
-24 -9 -50 19 -17 18 -32 47 -35 69 -9 57 -18 67 -46 51 -13 -6 -81 -66 -152
-132 -71 -65 -134 -119 -141 -119 -16 0 -51 40 -59 67 -7 23 8 63 23 63 5 0
42 32 82 71 41 39 104 96 141 126 38 29 75 68 84 86 19 37 49 68 58 60 10 -11
6 9 -25 122 -16 61 -32 119 -34 130 -6 27 35 88 109 160 57 56 96 79 171 101
29 9 30 11 36 89 7 84 15 115 30 115 5 0 14 12 19 26 8 19 16 25 29 21 27 -7
17 14 -17 36 -79 51 -192 114 -182 102 7 -8 27 -24 45 -35 41 -25 47 -40 32
-79 -9 -24 -19 -31 -50 -36 -32 -6 -45 -2 -80 22 -23 15 -59 45 -80 66 -32 32
-97 77 -112 77 -11 0 5 -115 25 -174 23 -71 22 -147 -3 -163 -7 -5 -17 -21
-22 -38 -14 -40 -66 -47 -101 -14 -24 22 -25 22 -53 6 -29 -17 -30 -17 -50 9
-26 33 -27 78 -3 96 10 7 31 39 47 71 27 55 28 61 16 105 -12 45 -39 98 -46
90 -2 -2 1 -33 7 -69 12 -71 5 -119 -13 -86 -6 9 -16 17 -24 17 -8 0 -29 9
-47 19 -27 16 -57 20 -161 23 l-127 3 0 -29 c0 -23 23 -53 115 -151 63 -67
135 -138 159 -156 25 -19 46 -39 46 -45 0 -16 49 -35 112 -44 l53 -8 -50 0
c-58 -2 -180 13 -233 28 -24 6 -68 39 -125 91 -48 45 -90 79 -93 77 -2 -3 2
-11 11 -18 8 -7 15 -21 15 -31 0 -14 7 -19 25 -19 18 0 25 -5 25 -20 0 -11 -4
-21 -10 -21 -38 -5 -45 -2 -48 19 -3 17 -10 22 -34 22 l-30 0 26 -35 27 -34
-21 -21 c-33 -33 -53 -25 -95 38 -40 58 -94 122 -105 122 -3 0 -4 -16 -2 -35
4 -31 8 -35 33 -35 23 0 33 -8 53 -42 34 -58 56 -149 56 -228 l-1 -65 -14 40
c-8 22 -15 41 -15 43 0 1 -7 2 -15 2 -8 0 -29 28 -46 63 -18 34 -47 86 -65
115 -19 29 -34 57 -34 62 0 6 -22 10 -49 10 -36 0 -72 10 -127 35 -42 19 -84
35 -94 35 -9 0 -39 -19 -65 -42 l-48 -42 6 -106 c4 -58 9 -116 12 -130 3 -14
8 -49 11 -77 6 -45 4 -53 -10 -53 -17 0 -37 17 -74 65 -15 19 -21 23 -16 10 4
-11 9 -48 12 -82 l4 -62 -39 19 c-43 20 -82 72 -104 135 -7 22 -17 44 -21 49
-20 25 -4 86 22 86 10 0 20 8 22 17 2 13 12 4 31 -30 15 -26 30 -47 32 -47 2
0 -1 15 -6 32 -12 42 -11 112 1 163 7 32 6 42 -6 51 -13 10 -11 16 12 43 14
17 36 31 47 31 30 0 42 10 54 45 8 25 18 31 64 43 63 16 79 27 50 37 -30 9
-26 21 9 28 24 5 31 13 41 49 15 56 18 61 35 47 21 -18 17 -4 -17 51 -17 27
-34 48 -39 45 -22 -13 -70 20 -112 78 -68 95 -135 202 -168 267 -34 68 -49 81
-57 51 -3 -12 -21 -54 -39 -92 -19 -39 -34 -76 -34 -83 0 -7 25 -30 55 -50 30
-20 90 -71 134 -115 79 -78 119 -142 136 -220 6 -29 5 -31 -20 -31 -37 0 -62
15 -125 74 l-55 51 61 -65 c92 -98 105 -130 50 -130 -63 0 -172 65 -259 156
-44 46 -84 81 -88 79 -11 -7 -22 -101 -14 -125 5 -14 39 -37 108 -70 88 -42
104 -53 118 -84 l17 -36 -59 0 c-65 0 -104 13 -261 91 -97 47 -109 56 -117 85
-22 79 52 274 104 274 7 0 17 12 24 26 10 23 9 30 -9 49 -11 12 -20 27 -20 35
0 18 82 169 133 245 44 66 169 195 189 195 7 0 24 11 38 25 14 14 50 45 80 68
31 25 56 53 58 65 3 16 10 22 28 22 14 0 40 11 57 24 54 41 139 88 202 111
l60 23 3 50 c3 48 2 50 -20 45 -51 -12 -192 -85 -248 -127 l-60 -46 0 69 c0
69 0 70 41 104 22 20 73 52 112 73 70 36 100 61 211 170 81 79 330 225 356
209 12 -8 13 -66 1 -98 -6 -15 -32 -35 -73 -55 -78 -39 -118 -73 -118 -101 0
-27 4 -26 105 4 70 22 84 29 89 50 5 19 13 25 35 25 25 0 28 3 24 24 -5 25 16
86 29 86 3 0 8 6 10 14 5 23 101 96 140 107 20 5 40 14 43 19 3 6 15 10 26 10
13 0 18 4 13 12 -4 7 -3 8 4 4 6 -3 30 -2 54 3 24 5 60 12 81 15 l37 5 0 -73
0 -73 -47 -17 c-200 -72 -218 -81 -216 -102 6 -49 10 -63 23 -79 13 -16 9 -17
-52 -13 l-67 3 20 -21 c27 -29 24 -41 -13 -49 -18 -3 -60 -15 -93 -26 -33 -10
-77 -21 -97 -24 l-38 -6 0 -83 0 -83 51 16 c28 10 55 25 60 34 6 9 15 17 21
17 7 0 42 20 79 45 37 25 70 45 74 45 4 0 19 9 33 21 25 19 35 20 124 14 l98
-7 0 24 c0 17 -8 29 -25 36 -31 14 -25 32 20 57 20 10 54 41 78 68 59 71 66
77 85 77 50 -1 53 -41 10 -127 l-22 -45 30 -26 c57 -51 59 -57 24 -94 -38 -39
-37 -55 7 -198 38 -122 58 -160 127 -240 56 -64 74 -99 61 -120 -3 -5 -24 -19
-45 -30 -56 -28 -63 -61 -59 -266 4 -161 5 -172 32 -225 31 -64 51 -80 206
-164 57 -31 129 -73 160 -94 86 -58 178 -106 264 -137 50 -19 76 -33 73 -41
-5 -12 36 -27 99 -36 17 -2 3 -5 -30 -6 -164 -4 -336 37 -461 109 -90 52 -124
62 -56 17 59 -38 209 -111 285 -137 37 -13 67 -30 67 -37 0 -10 31 -13 138
-13 117 0 149 -4 216 -24 43 -14 82 -29 85 -34 3 -5 44 -29 91 -52 47 -23 108
-58 135 -77 28 -20 41 -26 30 -15 -40 41 -182 135 -267 178 -87 44 -107 67
-68 79 21 7 53 58 43 69 -4 3 -1 6 6 6 7 0 11 6 9 12 -3 7 1 24 8 37 7 14 11
28 8 33 -3 4 2 19 11 32 9 14 14 30 10 36 -3 5 -1 10 5 10 8 0 10 9 5 28 -4
15 -9 53 -11 85 -5 64 -38 227 -52 254 -5 10 -10 39 -11 64 -2 42 0 47 27 58
20 8 40 32 64 74 32 59 36 62 69 59 l34 -2 -24 18 c-49 39 -31 194 25 208 28
7 23 19 -17 39 -28 15 -33 14 -97 -14 -38 -17 -88 -32 -111 -33 -37 -3 -46 1
-64 24 -27 37 -13 69 45 100 37 20 62 24 183 28 l140 5 -36 21 c-51 30 -85 61
-135 122 l-44 54 0 89 0 89 -50 0 c-45 0 -51 3 -65 30 -9 17 -18 30 -21 30 -2
0 2 -13 11 -30 17 -34 18 -34 -70 -30 -44 1 -43 1 -135 118 -51 65 -87 98 -96
90 -2 -2 6 -29 18 -60 29 -81 20 -119 -37 -158 -25 -17 -45 -35 -45 -40 0 -5
-11 -12 -24 -16 -17 -4 -37 4 -74 30 -53 39 -111 47 -169 25 l-28 -11 35 -18
c19 -9 64 -20 99 -24 136 -15 228 -73 279 -176 27 -54 30 -68 31 -171 1 -77 6
-121 17 -141 8 -16 55 -61 105 -100 99 -78 115 -100 125 -176 6 -51 6 -52 -18
-52 -17 0 -72 37 -169 116 -79 64 -152 125 -162 137 -16 20 -17 20 -8 2 13
-27 60 -70 156 -142 103 -78 186 -165 220 -232 20 -41 28 -73 32 -142 4 -62 3
-89 -5 -89 -6 0 -9 7 -6 15 4 8 1 15 -5 15 -6 0 -10 3 -10 8 3 17 -2 32 -9 30
-5 -2 -24 13 -43 31 -19 19 -27 31 -19 27 8 -4 4 2 -9 13 -13 12 -20 21 -17
21 4 0 -8 15 -26 32 -18 18 -36 32 -40 30 -5 -1 -7 4 -5 11 1 6 -4 11 -11 9
-8 -1 -11 1 -8 6 3 5 -41 46 -99 91 -137 108 -200 178 -220 243 -17 59 -11 98
15 98 10 0 22 10 25 21 7 21 8 20 27 -10 11 -18 21 -31 22 -29 1 2 -1 57 -4
123 -6 126 -17 162 -61 200 l-23 20 22 -29 c16 -20 22 -43 22 -77 l0 -49 -38
0 c-23 0 -51 9 -74 25 -69 47 -291 115 -375 115 -49 0 -83 32 -83 77 0 27 6
37 39 57 22 14 42 34 46 46 4 11 15 20 26 20 20 0 20 5 15 165 -5 128 -10 173
-23 202 -21 43 -49 60 -34 20 5 -13 12 -73 15 -133 3 -78 3 -91 -3 -47 -9 69
-25 97 -53 90 -10 -3 -18 -1 -18 4 0 13 -63 39 -95 39 -25 0 -25 1 -25 79 l0
80 33 3 c17 2 46 -3 63 -11 35 -15 84 -8 84 12 0 18 36 48 85 71 32 16 67 20
185 22 196 4 242 -10 255 -77 l6 -35 -86 -38 c-57 -24 -111 -40 -160 -45 -82
-10 -102 -18 -86 -34 18 -18 13 -79 -14 -155 -31 -88 -31 -94 -1 -129 l24 -28
-5 27 c-4 20 0 29 16 37 12 7 21 8 21 4 0 -3 12 5 28 19 15 15 49 39 76 55 39
22 56 41 83 93 19 36 41 72 49 81 8 8 14 21 14 27 0 7 4 12 9 12 5 0 14 13 19
29 11 32 60 63 95 61 60 -5 77 0 77 23 0 12 4 27 8 33 25 38 123 45 204 14 63
-24 58 -23 58 -5 0 8 5 15 10 15 6 0 10 9 10 19 0 11 6 22 13 24 23 10 138 7
158 -3z m-2713 -925 c-13 -19 -29 -35 -36 -35 -6 0 -31 -25 -55 -55 -41 -54
-72 -73 -101 -62 -24 10 -6 62 52 150 25 37 25 37 93 37 l69 0 -22 -35z m3621
-1225 c21 -11 45 -45 55 -77 6 -20 4 -23 -17 -23 -25 0 -25 0 -10 -42 8 -23
13 -57 11 -77 -3 -34 -5 -36 -33 -33 -52 6 -139 78 -150 125 -10 40 40 79 60
47 3 -5 23 -10 43 -10 l37 0 -40 27 c-29 20 -35 28 -24 31 10 2 19 12 22 23 6
21 19 24 46 9z m-3899 -14 c14 -2 49 -9 78 -16 45 -10 52 -15 52 -36 0 -19 -5
-24 -24 -24 -17 0 -27 -7 -32 -22 -12 -43 -34 -58 -82 -58 -88 0 -157 -63
-192 -177 -12 -40 -12 -45 14 -81 15 -22 31 -64 37 -98 14 -84 29 -177 29
-190 0 -21 72 -85 129 -113 84 -43 89 -52 46 -90 -20 -17 -40 -31 -44 -31 -5
0 -20 -20 -34 -44 -24 -44 -24 -45 -7 -84 23 -51 37 -59 32 -18 -6 47 23 52
96 15 69 -35 80 -36 84 -7 2 16 13 25 40 31 41 10 98 66 98 96 0 10 9 21 20
24 24 6 26 38 8 119 -16 76 -28 81 -28 13 0 -83 -19 -51 -21 35 l-1 65 -9 -49
c-9 -58 -48 -103 -95 -112 -23 -4 -50 2 -102 25 -39 17 -75 31 -80 31 -15 0
-42 47 -42 74 0 14 8 29 17 34 15 9 16 14 3 52 -7 23 -22 47 -31 54 -33 23
-55 114 -25 103 12 -5 16 5 18 46 l3 52 23 -87 c12 -48 22 -106 22 -128 0 -23
4 -39 9 -36 5 3 32 -10 60 -29 87 -60 95 -61 141 -14 47 48 65 79 74 132 4 20
11 37 15 37 17 0 20 -46 6 -85 -21 -58 -19 -64 13 -56 16 4 28 15 30 27 2 10
8 30 15 43 9 19 9 25 0 28 -23 8 -15 68 11 92 14 13 33 53 46 94 31 102 47
137 65 137 9 0 13 5 10 10 -3 6 -15 10 -25 10 -24 0 -75 100 -65 128 21 67
126 3 128 -77 1 -36 4 -42 31 -51 27 -10 29 -12 14 -21 -14 -8 -15 -14 -7 -27
9 -14 6 -29 -14 -67 -29 -58 -53 -187 -43 -239 4 -19 18 -49 32 -66 l26 -30
-25 0 c-14 0 -37 4 -51 10 -14 5 -26 8 -26 5 0 -8 85 -53 113 -59 23 -5 27 -3
27 15 0 12 8 23 20 26 15 4 20 14 20 41 0 19 7 71 16 115 20 99 16 233 -9 271
-25 38 -22 56 11 56 67 0 92 -71 102 -280 4 -91 11 -172 14 -181 4 -9 39 -34
77 -55 80 -43 118 -86 99 -109 -8 -10 -21 -13 -37 -9 l-25 7 17 -33 c9 -17 14
-37 12 -44 -3 -7 -41 -18 -84 -25 -74 -12 -86 -11 -158 9 -42 12 -98 30 -123
41 -24 11 -46 18 -48 16 -2 -1 4 -25 13 -52 24 -75 23 -262 -1 -342 l-19 -63
-78 0 -79 0 24 68 c33 90 41 150 25 187 l-13 30 -4 -30 c-2 -21 -13 -37 -35
-51 -18 -12 -53 -56 -80 -102 -26 -45 -52 -84 -56 -86 -4 -3 -41 18 -82 47
l-74 51 44 -53 c61 -73 104 -166 90 -193 -9 -16 -7 -26 9 -47 11 -14 25 -25
31 -24 6 2 10 -3 8 -10 -1 -6 6 -11 15 -9 21 3 14 -24 -8 -32 -8 -3 -13 -2
-10 3 3 5 -9 10 -27 10 -79 4 -93 7 -108 24 -9 9 -21 17 -26 17 -5 0 -14 15
-20 33 -9 29 -8 36 9 46 18 11 17 14 -20 50 -21 21 -46 48 -55 61 -9 13 -20
21 -23 17 -4 -4 0 -15 9 -24 8 -10 19 -36 22 -58 4 -22 12 -46 18 -52 5 -7 6
-13 3 -13 -4 0 -2 -9 3 -19 8 -14 7 -20 -3 -24 -9 -4 -19 5 -26 23 -7 16 -19
35 -28 42 -13 11 -15 11 -8 -2 9 -16 -46 42 -99 106 -48 57 -86 145 -92 215
-6 59 -23 83 -23 31 0 -60 73 -238 102 -250 4 -2 8 -9 8 -16 0 -7 8 -21 18
-32 9 -11 25 -36 36 -56 10 -20 33 -53 51 -73 l33 -36 -51 6 c-29 3 -58 7 -64
7 -7 1 -13 5 -13 9 0 8 -40 24 -52 21 -5 -1 -8 4 -8 11 0 6 -18 29 -40 50 -22
20 -40 40 -40 43 0 4 -8 14 -19 23 -10 9 -30 40 -45 68 -84 167 -72 361 24
386 42 11 59 24 71 54 5 13 15 23 24 23 17 0 23 -21 28 -110 4 -64 33 -158 61
-196 12 -16 12 -11 -1 26 -8 25 -18 73 -20 108 -6 61 -5 63 31 97 l36 34 -34
7 c-20 3 -39 11 -45 18 -30 36 -75 148 -85 208 -8 54 -14 68 -28 68 -15 0 -18
-10 -20 -57 -2 -65 -2 -86 4 -157 4 -46 2 -49 -30 -64 -40 -20 -64 -9 -73 34
-3 16 -6 106 -8 199 -3 272 28 402 118 492 26 25 60 46 87 54 34 10 44 18 44
35 0 38 49 48 160 30z m5688 -198 c-6 -112 -33 -206 -90 -306 -71 -126 -269
-342 -313 -342 -39 0 0 64 154 259 42 53 91 116 107 141 40 58 113 230 127
298 6 28 13 52 15 52 3 0 2 -46 0 -102z m-4542 -3 c27 -8 87 -21 134 -29 222
-40 272 -78 287 -218 6 -58 5 -61 -13 -54 -10 5 -28 11 -39 14 -11 3 -38 20
-59 39 -53 44 -132 73 -243 86 -81 9 -94 8 -117 -7 -20 -12 -26 -25 -26 -51 0
-68 34 -119 120 -178 51 -35 69 -55 70 -77 0 -8 -22 -51 -49 -95 -27 -44 -54
-97 -61 -119 -18 -56 -8 -171 19 -224 22 -44 100 -127 109 -117 8 8 42 -26 42
-42 0 -7 5 -13 10 -13 6 0 10 -7 10 -15 0 -10 -10 -15 -32 -15 -61 0 -61 -17
0 -19 103 -3 299 57 353 108 40 38 160 121 219 151 111 56 150 64 350 65 192
1 230 6 230 31 0 11 -9 15 -33 13 -18 -2 -38 1 -45 5 -7 4 -16 5 -19 2 -4 -3
-1 -6 6 -6 7 0 10 -4 6 -9 -3 -5 3 -12 12 -14 10 -3 -25 -5 -77 -6 -52 0 -99
3 -105 7 -14 10 -18 62 -5 62 6 0 9 4 6 8 -8 13 34 43 57 42 46 -4 58 0 55 18
-7 40 91 15 124 -33 5 -6 8 -6 8 2 0 7 -19 26 -42 43 -22 16 -36 30 -30 30 6
0 12 10 14 23 2 17 10 23 38 25 52 4 114 -20 118 -46 2 -12 9 -22 17 -22 7 0
16 -7 19 -16 3 -8 10 -12 16 -9 5 3 7 0 4 -8 -3 -8 5 -24 17 -36 12 -11 19
-24 16 -28 -4 -3 -7 -1 -7 6 0 7 -4 9 -10 6 -5 -3 -10 -19 -10 -34 0 -33 -16
-51 -48 -51 -23 0 -23 -2 17 -45 37 -40 41 -50 41 -96 0 -40 -3 -49 -12 -41
-7 5 -31 8 -53 6 -22 -1 -65 -3 -95 -3 -30 0 -105 0 -167 -1 -88 -1 -118 3
-140 16 -19 11 -22 11 -10 1 17 -14 16 -15 -5 -20 -13 -3 -44 -5 -70 -4 -25 1
-44 -1 -42 -4 4 -6 -53 -19 -110 -24 -39 -4 -95 -52 -131 -111 -16 -27 -56
-73 -88 -102 -47 -43 -61 -51 -72 -42 -16 13 -57 15 -160 6 -38 -3 -99 -6
-135 -6 -76 -1 -67 -10 42 -45 38 -12 65 -25 61 -30 -5 -4 -2 -5 5 -1 17 10
98 -12 113 -30 8 -10 8 -18 1 -27 -8 -10 -5 -13 15 -15 15 -1 29 -4 31 -7 6
-6 -190 -4 -201 2 -4 3 -38 7 -74 9 -37 2 -69 8 -72 12 -7 9 -27 10 -36 1 -3
-4 11 -10 32 -14 21 -4 42 -10 48 -13 5 -3 16 -7 25 -8 52 -6 166 -28 170 -33
3 -3 12 -6 20 -6 18 0 220 -23 268 -31 26 -4 32 -9 32 -30 0 -62 -93 -130
-169 -122 -22 2 -41 0 -41 -3 0 -4 -10 -6 -22 -5 -29 4 -130 19 -140 22 -5 1
-17 2 -29 3 -12 0 -17 5 -13 12 4 7 0 9 -14 5 -11 -4 -39 -2 -63 4 -24 6 -50
12 -56 12 -7 1 -13 4 -13 7 0 3 -15 7 -33 8 -17 1 -54 8 -80 14 -37 9 -47 15
-42 27 4 11 2 12 -7 4 -16 -13 -138 34 -138 53 0 15 -54 40 -69 31 -33 -21
-90 -287 -98 -456 -10 -210 14 -267 132 -319 44 -19 45 -21 45 -66 l0 -47 -32
7 c-114 25 -287 102 -289 128 0 7 -3 21 -6 32 -2 11 -5 99 -6 195 -1 147 2
194 22 292 21 105 21 119 8 138 -24 35 -4 86 58 146 31 31 54 62 58 81 3 17
21 47 40 66 31 33 32 38 20 61 -20 39 -28 175 -13 222 7 21 37 77 67 123 29
47 53 90 53 97 0 12 28 29 43 26 4 -1 8 10 8 25 1 16 2 33 4 38 1 6 3 21 3 35
1 15 11 29 24 35 28 13 55 60 61 108 4 34 2 39 -24 52 -16 9 -45 30 -65 47
l-36 32 31 -49 c33 -51 42 -115 18 -115 -47 0 -166 120 -181 182 -8 33 2 61
20 54 11 -4 14 6 15 42 l0 47 14 -43 c12 -40 63 -118 71 -110 2 3 -6 29 -17
59 -17 43 -20 67 -15 118 6 73 16 91 83 155 53 50 71 54 149 31z m-1103 -127
c8 -24 29 -83 47 -132 28 -77 60 -186 60 -202 0 -3 -17 -4 -37 -2 -35 3 -40 8
-71 65 -37 70 -72 196 -72 258 0 48 5 55 35 55 18 0 26 -10 38 -42z m-94
-1249 c13 -10 27 -16 32 -13 5 3 9 -1 9 -9 0 -8 14 -28 30 -45 17 -18 29 -33
28 -34 -1 -2 9 -33 21 -69 28 -84 30 -97 36 -199 4 -69 3 -77 -5 -45 -23 94
-33 125 -41 125 -5 0 -8 4 -6 9 3 12 -56 121 -66 121 -5 0 0 -15 11 -32 21
-36 67 -166 77 -222 7 -37 -1 -76 -16 -76 -22 0 -87 92 -95 135 -7 38 -37 94
-47 88 -5 -3 -7 0 -5 8 3 8 -2 20 -11 27 -9 8 -10 11 -3 7 8 -4 7 5 -5 29 -9
20 -20 36 -25 36 -4 0 -8 7 -8 15 0 8 -8 23 -17 33 -10 9 -19 31 -21 47 -2 17
-11 36 -20 43 -16 12 -15 13 3 10 11 -2 19 2 18 8 -1 5 9 10 23 10 13 0 24 -2
24 -5 1 -4 12 -19 27 -36 l25 -30 -21 36 c-11 20 -21 44 -21 53 0 14 3 15 23
5 12 -7 33 -20 46 -30z m207 22 c-3 -4 3 -7 12 -8 9 0 37 -4 62 -8 25 -4 53
-7 62 -7 14 1 16 -6 12 -40 -4 -31 -2 -38 8 -32 7 4 10 4 6 -1 -4 -4 -3 -14 3
-21 7 -8 7 -14 -1 -19 -6 -4 -10 -3 -9 2 3 18 -2 24 -13 16 -7 -4 -17 -8 -23
-8 -5 -1 -22 -5 -37 -9 l-27 -8 4 -96 c2 -54 7 -126 11 -162 12 -104 11 -110
-22 -110 -33 0 -59 59 -68 155 -9 106 -33 185 -54 185 -4 0 -8 9 -9 21 -1 11
-18 38 -37 59 -24 27 -33 45 -29 59 3 11 9 18 15 15 5 -3 4 -12 -4 -22 -11
-14 -10 -15 12 -9 14 4 31 7 38 7 7 0 11 4 8 9 -12 19 5 39 30 35 13 -2 24 0
24 5 0 6 7 8 15 5 8 -4 13 -9 11 -13z m324 -398 c-1 -93 -20 -157 -66 -224
-36 -53 -45 -74 -41 -96 3 -15 8 -45 12 -65 9 -48 -11 -125 -37 -139 -35 -19
-87 0 -119 44 -40 55 -71 161 -67 228 3 51 4 54 36 60 18 4 44 19 58 35 35 41
41 47 59 62 10 9 15 30 15 67 l0 55 75 0 75 0 0 -27z m1356 -223 c38 -56 44
-72 44 -116 l0 -52 -52 15 c-57 17 -120 57 -117 76 1 7 -6 29 -15 51 -24 54
-18 98 17 114 15 7 27 18 27 25 1 15 39 -30 96 -113z m1188 -70 c25 -12 46
-25 46 -30 0 -6 6 -10 13 -10 12 0 28 -21 54 -69 8 -13 13 -56 13 -100 -1 -87
-27 -146 -74 -170 l-28 -13 31 -15 c44 -22 101 -88 101 -118 0 -14 5 -25 10
-25 6 0 10 -28 10 -64 0 -36 -4 -68 -10 -71 -5 -3 -10 -15 -10 -26 0 -25 -59
-90 -102 -110 -18 -9 -45 -22 -59 -28 -19 -9 -79 -11 -223 -7 -109 2 -199 6
-201 8 -2 2 -6 198 -10 436 l-8 432 200 0 c180 0 205 -2 247 -20z m721 8 c25
-7 45 -16 45 -20 0 -4 6 -8 13 -8 24 0 97 -87 101 -122 1 -3 4 -10 9 -14 4 -4
7 -23 7 -43 l1 -36 24 28 c14 15 25 23 25 18 0 -6 16 -11 35 -11 l34 0 3 93 3
92 28 -1 c15 -1 43 -2 62 -3 l35 -1 0 -94 0 -94 88 2 c111 3 121 -2 113 -51
l-6 -38 -98 -3 -97 -3 0 -207 c0 -157 3 -213 13 -226 14 -19 26 -22 132 -34
l60 -7 0 -40 0 -40 -112 -3 -112 -3 -45 44 c-26 25 -46 53 -46 65 0 11 -5 24
-10 27 -6 4 -10 12 -9 18 1 7 1 101 0 210 l-1 197 -37 0 c-28 0 -34 -3 -23
-10 8 -5 11 -10 5 -10 -16 0 -31 13 -38 33 -12 32 -24 18 -30 -35 -4 -29 -11
-54 -17 -56 -5 -2 -10 -10 -10 -17 0 -22 -97 -102 -131 -109 -17 -3 -83 -6
-145 -6 l-114 0 0 -170 c0 -93 -3 -170 -7 -171 -5 0 -31 -1 -59 -2 l-52 -2 -5
61 c-3 34 -6 207 -7 385 -1 178 -3 344 -5 369 -2 25 -1 48 1 52 8 13 329 9
379 -4z m-479 -234 c-1 -24 1 -44 5 -44 3 0 5 -18 3 -40 -1 -22 1 -40 4 -40 4
0 7 -16 8 -35 0 -18 -3 -32 -7 -29 -4 2 -10 0 -13 -5 -4 -5 -1 -13 5 -17 8 -4
7 -9 -2 -15 -8 -5 -9 -9 -3 -9 13 0 13 -68 0 -89 -7 -11 -5 -13 5 -9 12 5 15
-3 13 -41 -2 -61 -2 -61 -14 -61 -5 0 -10 6 -10 14 0 8 -5 16 -11 18 -5 2 -11
11 -13 20 -1 10 -5 20 -9 24 -3 4 0 22 8 40 10 25 11 34 2 34 -9 0 -9 2 -1 8
6 4 9 16 7 27 -2 11 -6 54 -8 95 -7 98 -11 129 -19 137 -3 3 -1 12 5 20 9 9 8
13 0 13 -6 0 -3 8 7 18 26 28 39 16 38 -34z"/>
<path d="M4817 5392 c-16 -3 -16 -6 3 -38 12 -18 20 -42 18 -51 -1 -10 1 -24
5 -30 13 -20 -122 -17 -151 3 -21 15 -22 14 -12 -11 6 -15 10 -39 10 -55 0
-28 -2 -29 -37 -23 -45 6 -112 34 -133 54 -8 8 -33 23 -55 34 -70 34 -74 35
-68 19 3 -7 10 -14 16 -14 6 0 8 -3 5 -6 -4 -3 7 -35 24 -70 25 -54 29 -72 24
-112 -5 -44 -3 -51 23 -76 l28 -27 7 25 c5 19 13 26 31 26 36 0 107 29 128 52
9 11 17 17 17 13 0 -4 17 15 37 43 42 56 77 72 159 72 88 0 268 -38 358 -75
13 -6 17 -5 13 2 -12 19 -158 76 -242 94 -63 13 -72 17 -42 18 33 1 38 4 32
21 -9 28 32 36 122 22 100 -16 188 -47 251 -88 46 -30 52 -32 52 -15 0 36
-160 108 -348 156 -73 18 -249 42 -275 37z"/>
<path d="M5090 5054 c-40 -19 -52 -20 -108 -12 -70 11 -94 1 -85 -33 5 -16 -9
-35 -57 -80 -35 -32 -68 -59 -74 -59 -6 0 -26 9 -45 21 -18 11 -56 23 -84 26
l-50 6 28 -38 c34 -44 136 -128 180 -149 44 -21 62 -45 70 -95 l7 -44 -56 6
c-32 3 -56 2 -56 -4 0 -5 3 -9 8 -9 4 0 32 -24 61 -52 30 -29 52 -45 48 -36
-7 20 47 98 68 98 9 0 20 11 27 24 6 16 21 26 37 28 19 2 36 19 66 65 64 98
71 104 103 87 40 -21 48 -17 16 8 -16 12 -32 27 -36 33 -14 19 -9 172 5 187
12 11 11 16 -7 29 -19 14 -25 13 -66 -7z"/>
<path d="M5250 4971 c0 -19 48 -77 80 -97 69 -43 83 -62 77 -101 -9 -51 -18
-57 -63 -38 -42 17 -40 14 19 -29 20 -15 37 -34 37 -42 0 -7 7 -14 16 -14 11
0 14 -8 12 -32 -3 -32 -5 -33 -48 -35 -49 -2 -80 17 -80 49 0 15 -8 18 -49 18
-48 0 -50 -1 -126 -81 l-77 -81 5 -64 6 -64 -45 0 c-31 0 -50 6 -64 20 -24 24
-24 24 -5 -65 8 -39 15 -97 14 -130 l0 -60 -14 33 c-8 18 -19 31 -24 27 -5 -3
-26 25 -47 62 -56 103 -80 135 -125 170 -47 36 -59 35 -59 -7 0 -29 11 -41 95
-99 22 -15 46 -40 54 -55 13 -24 13 -30 -2 -55 -9 -16 -17 -34 -17 -41 0 -6
-8 -21 -17 -34 -16 -21 -19 -22 -67 -9 -70 19 -110 10 -135 -30 -11 -18 -16
-33 -11 -35 6 -2 10 -8 10 -13 0 -6 -5 -7 -10 -4 -6 4 -10 -5 -8 -24 1 -17 6
-31 11 -31 4 0 5 -4 2 -10 -3 -5 0 -10 7 -10 9 0 9 -3 -2 -10 -12 -8 -13 -13
-3 -29 10 -15 10 -21 0 -24 -7 -3 -7 -6 -1 -6 5 -1 9 -15 8 -31 -1 -19 4 -34
14 -40 10 -5 12 -10 5 -10 -7 0 -13 -9 -13 -20 0 -11 6 -18 13 -16 6 1 9 1 5
-1 -11 -6 -10 -51 1 -58 5 -3 13 0 17 6 5 8 3 9 -6 4 -9 -6 -11 -4 -6 4 14 22
24 1 30 -68 2 -20 12 -42 25 -52 11 -9 21 -20 21 -23 0 -10 -82 -7 -119 4 -19
5 -36 8 -38 6 -6 -5 44 -36 64 -39 10 -1 23 -5 28 -8 29 -15 125 -10 163 9
l41 19 6 -73 7 -74 30 0 c30 0 31 0 25 47 -3 26 -10 49 -16 51 -35 12 8 92 49
92 15 0 18 16 23 118 6 121 18 182 41 204 28 28 34 71 20 138 -18 85 -17 132
1 177 24 57 63 103 88 103 12 0 29 6 38 13 24 18 59 84 59 110 0 36 23 61 48
53 26 -9 39 -49 24 -79 -6 -12 -22 -54 -36 -94 -14 -39 -39 -98 -56 -129 -23
-44 -29 -65 -24 -89 8 -40 102 -162 165 -214 27 -23 49 -47 49 -53 0 -6 7 -20
17 -30 15 -17 14 -18 -41 -18 -65 0 -107 15 -153 54 -42 35 -43 19 -2 -20 17
-16 35 -39 40 -51 8 -21 14 -23 96 -23 86 0 216 23 308 54 169 58 255 160 255
304 0 30 -8 92 -17 137 -20 99 -20 100 77 151 66 34 146 104 197 171 l26 34
-21 15 c-12 8 -26 34 -32 57 -11 42 -58 123 -66 115 -2 -3 0 -28 6 -57 5 -29
7 -64 4 -77 -5 -20 -11 -23 -33 -18 -14 3 -38 15 -53 25 -37 26 -58 24 -58 -3
0 -13 -7 -48 -15 -78 -15 -58 -44 -89 -83 -90 -15 0 -26 -9 -32 -25 -12 -30
-34 -25 -70 17 -23 27 -29 29 -60 21 -18 -5 -37 -15 -41 -23 -4 -8 -43 -73
-87 -145 -43 -71 -94 -158 -111 -193 -19 -37 -56 -86 -89 -118 l-57 -56 -22
27 c-43 50 -43 120 1 131 16 4 26 15 30 34 9 46 84 196 154 310 27 43 28 75 3
131 -23 51 -20 59 20 59 16 0 29 5 29 10 0 15 40 12 94 -6 40 -14 54 -14 92
-4 24 7 44 19 44 26 0 8 5 14 10 14 6 0 10 28 10 65 l0 64 -37 6 c-21 4 -70
15 -109 26 -93 25 -131 24 -179 -6 -22 -13 -48 -25 -58 -25 -9 0 -33 22 -52
49 -37 51 -75 78 -75 52z"/>
<path d="M2897 4810 c-4 -19 -18 -37 -38 -49 -17 -10 -40 -33 -51 -51 -18 -30
-22 -32 -56 -25 -20 4 -49 9 -64 12 -70 13 -133 -23 -175 -100 -20 -36 -23
-161 -12 -399 4 -82 3 -128 -3 -128 -7 0 -8 -31 -3 -86 7 -81 6 -87 -20 -126
-24 -35 -25 -43 -15 -69 15 -35 22 -36 35 -6 6 12 17 21 25 19 29 -7 146 -2
185 8 59 14 122 12 156 -5 25 -13 30 -13 35 -2 3 8 4 19 2 24 -2 5 16 29 39
52 23 23 45 55 48 71 4 16 18 37 31 47 27 20 29 10 -21 128 -7 17 -18 43 -24
59 -7 16 -14 51 -17 77 -4 40 -1 50 15 59 24 12 71 -5 71 -27 0 -7 4 -21 10
-31 5 -9 24 -60 41 -112 37 -109 53 -145 80 -173 19 -21 19 -20 21 49 l2 69 3
-63 c4 -69 -6 -92 -40 -92 l-21 0 21 -21 c22 -22 48 -17 39 7 -3 7 2 17 11 22
13 8 17 41 24 193 5 101 7 214 4 252 -4 54 -2 67 10 67 24 0 18 42 -15 109
-17 33 -44 103 -61 156 -17 53 -33 94 -35 92 -2 -2 3 -23 11 -47 8 -23 15 -59
15 -79 0 -20 4 -41 10 -47 5 -5 12 -65 14 -134 l6 -125 -14 70 c-8 39 -15 98
-15 133 l-1 62 -33 0 c-32 0 -36 4 -71 75 -42 85 -74 115 -121 115 -28 0 -33
-4 -38 -30z"/>
<path d="M2286 4694 c-14 -15 -26 -31 -26 -35 0 -5 -22 -9 -50 -9 -47 0 -50
-2 -79 -44 -17 -24 -60 -67 -95 -95 -70 -55 -89 -90 -64 -119 20 -23 173 -315
170 -324 -1 -4 7 -25 17 -45 11 -21 31 -67 46 -103 15 -36 38 -76 52 -89 18
-17 24 -31 21 -52 -4 -27 -3 -28 36 -27 l41 0 -6 167 c-3 91 -11 209 -18 261
-22 172 -28 277 -20 333 7 52 28 126 39 137 3 3 15 20 28 38 l23 32 -44 0
c-34 0 -50 -6 -71 -26z m-35 -277 c10 -3 19 0 19 6 0 6 2 8 5 6 9 -10 35 -257
34 -329 -1 -49 -4 -65 -8 -45 -4 21 -12 30 -26 30 -17 0 -24 14 -42 85 -11 47
-24 118 -28 158 -6 57 -11 72 -24 72 -11 0 -7 7 14 24 21 17 31 21 33 11 2 -7
12 -15 23 -18z"/>
<path d="M6730 4480 c0 -45 4 -62 15 -66 8 -4 12 -10 9 -15 -3 -5 4 -9 14 -9
11 0 42 -15 68 -33 77 -53 74 -52 74 -12 0 30 -9 44 -57 93 -32 32 -73 68 -90
80 l-33 23 0 -61z"/>
<path d="M1950 4067 c0 -10 69 -107 144 -200 106 -135 130 -177 134 -242 l5
-60 -48 53 c-26 29 -56 57 -66 62 -17 9 -17 8 -3 -17 7 -16 14 -35 14 -45 0
-9 16 -25 35 -37 40 -23 47 -51 13 -51 -20 -1 -18 -4 12 -20 35 -18 35 -18 42
3 3 12 6 51 7 87 0 53 -5 76 -29 125 -17 33 -30 65 -30 71 0 7 -15 21 -33 31
-17 11 -61 61 -97 112 -77 110 -99 139 -100 128z"/>
<path d="M4550 3436 c0 -18 21 -34 99 -77 43 -23 81 -54 109 -88 l42 -52 0 91
0 90 -73 0 c-58 0 -81 5 -119 25 -55 29 -58 30 -58 11z"/>
<path d="M3650 3354 c0 -43 -120 -159 -175 -169 -128 -23 -178 -121 -122 -237
14 -29 29 -70 32 -90 l7 -38 -61 0 c-39 0 -60 -4 -56 -10 10 -16 -6 -100 -18
-97 -6 1 -13 -6 -15 -15 -2 -13 3 -18 17 -18 12 0 21 5 21 11 0 5 5 7 10 4 6
-3 10 4 10 18 0 31 14 42 70 57 25 7 57 21 71 31 15 10 34 19 43 19 46 0 166
91 206 155 24 39 39 44 47 16 4 -16 15 -18 89 -17 75 0 84 2 84 19 0 13 5 17
18 13 37 -12 43 7 20 62 -18 42 -20 55 -10 77 24 52 74 29 171 -80 41 -46 88
-85 137 -113 41 -24 74 -48 74 -53 0 -6 19 -19 43 -30 l42 -19 -83 5 c-47 3
-114 16 -152 29 -92 31 -80 15 18 -22 98 -38 180 -53 271 -50 64 3 71 5 67 22
-3 12 2 20 15 23 11 3 25 16 30 29 7 20 16 24 48 24 35 0 44 -6 85 -53 27 -32
63 -61 88 -72 130 -55 157 -70 208 -119 45 -43 66 -56 108 -65 63 -13 106 -34
230 -112 51 -33 95 -59 98 -59 3 0 56 -33 119 -74 112 -73 129 -91 145 -147
l9 -29 -50 0 c-28 0 -64 7 -82 16 -29 15 -28 13 11 -21 50 -44 72 -82 72 -126
0 -45 11 -30 16 21 3 30 11 48 29 62 14 11 31 26 39 33 7 7 26 15 42 17 24 2
33 12 54 55 14 29 31 53 37 53 9 0 6 13 -8 40 -13 25 -25 37 -32 33 -14 -9
-113 -31 -144 -32 -15 -1 -44 25 -98 87 -156 178 -477 352 -650 352 -34 0 -41
6 -173 159 -101 116 -261 202 -478 257 -74 18 -140 31 -147 28 -13 -5 -124 27
-237 67 -48 18 -70 32 -85 56 -18 30 -24 32 -75 33 -30 0 -65 3 -77 6 -20 6
-23 2 -23 -22z m148 -150 c20 -14 22 -22 18 -82 -2 -37 -4 -75 -5 -84 -1 -14
-10 -18 -43 -18 l-43 0 0 88 c1 48 4 93 8 100 11 17 38 15 65 -4z"/>
<path d="M4788 3095 c30 -33 67 -81 84 -107 32 -50 57 -66 69 -47 4 8 22 10
47 6 23 -2 43 -3 46 0 3 3 -5 19 -18 34 -15 17 -22 36 -19 48 8 32 -16 91 -37
91 -14 0 -20 -9 -22 -32 l-3 -33 -18 33 c-10 17 -24 32 -32 32 -19 0 -19 -11
0 -36 8 -10 15 -25 15 -31 0 -27 -34 -11 -98 45 l-67 57 53 -60z"/>
<path d="M4934 2350 c-32 -13 -38 -28 -39 -102 l-1 -66 41 -13 c37 -12 75 -39
75 -55 0 -3 -8 -3 -17 1 -14 5 -15 3 -6 -6 12 -12 7 -42 -6 -34 -10 6 -1 -57
11 -72 23 -28 -34 -106 -64 -87 -6 4 -8 3 -5 -3 3 -5 -17 -20 -46 -33 -47 -22
-65 -24 -192 -23 -113 1 -154 5 -210 23 -38 11 -79 23 -90 27 -48 13 62 -50
117 -68 71 -22 111 -46 103 -59 -3 -5 9 -16 27 -24 l33 -14 -45 -1 c-146 -2
-268 37 -339 108 -23 23 -41 37 -41 32 0 -20 81 -90 133 -115 97 -46 176 -59
322 -53 131 6 189 12 235 24 14 3 31 7 38 9 8 1 21 9 30 17 10 8 35 24 58 35
57 29 68 46 65 99 -1 25 4 52 11 61 10 12 10 14 1 8 -10 -5 -13 5 -13 40 0 34
-6 54 -20 69 -11 11 -22 35 -26 51 -5 28 -2 32 31 48 36 17 37 17 61 -5 27
-25 32 -15 10 17 -9 12 -12 31 -9 43 5 20 11 22 44 19 22 -2 39 -2 39 -1 0 12
-99 73 -119 73 -15 0 -52 9 -84 20 -61 22 -80 23 -113 10z"/>
<path d="M2540 2221 c0 -111 37 -184 113 -222 61 -31 218 -91 224 -85 6 6 3 7
-119 56 -43 18 -78 36 -78 42 0 5 -4 7 -9 3 -14 -8 -69 53 -91 103 -10 23 -17
42 -14 42 3 0 22 -17 42 -37 72 -72 112 -100 150 -106 l37 -6 -45 22 c-59 28
-140 110 -169 169 -30 63 -41 68 -41 19z"/>
<path d="M4315 1111 c-2 -4 -4 -62 -4 -130 l-1 -122 74 2 c41 2 72 7 69 12 -2
4 17 5 44 2 44 -6 51 -3 86 25 34 29 37 36 37 84 0 45 -4 56 -30 81 -16 16
-30 25 -30 21 0 -5 -6 -4 -12 2 -20 15 -225 36 -233 23z"/>
<path d="M4319 746 c-2 -2 -3 -70 -1 -151 l3 -147 87 5 c161 10 215 27 232 72
13 33 13 116 1 148 -13 34 -91 71 -131 62 -28 -6 -34 -17 -32 -55 0 -11 -3
-10 -14 4 -10 14 -11 23 -3 32 6 7 8 17 5 22 -5 9 -138 16 -147 8z"/>
<path d="M5100 950 l0 -160 25 4 c13 3 61 8 106 12 54 4 82 11 86 20 3 8 11
14 19 14 15 0 50 67 40 77 -3 3 -1 12 5 20 8 9 8 17 2 26 -6 6 -13 28 -17 49
-9 52 -63 91 -111 82 -23 -4 -35 -2 -35 5 0 7 -23 11 -60 11 l-60 0 0 -160z"/>
</g>
</svg>
